<svg viewBox="0 0 517.27 286.86" xmlns="http://www.w3.org/2000/svg" xmlns:xlink="http://www.w3.org/1999/xlink" id="Layer_1" overflow="hidden"><defs></defs><path d="M483.36 286.86 33.91 286.86C15.21 286.86 0 271.65 0 252.95L0 33.91C0 15.21 15.21 0 33.91 0L483.36 0C502.06 0 517.27 15.21 517.27 33.91L517.27 252.95C517.27 271.65 502.06 286.86 483.36 286.86ZM33.91 2C16.32 2 2 16.32 2 33.91L2 252.95C2 270.55 16.32 284.86 33.91 284.86L483.36 284.86C500.96 284.86 515.27 270.54 515.27 252.95L515.27 33.91C515.27 16.31 500.95 2 483.36 2L33.91 2Z" fill="#FFFFFF" opacity="0.72"/><rect x="9.5" y="9.5" rx="24.41" ry="24.41" width="498.26" height="267.85" fill="#FFFFFF" opacity="0.72"/></svg>