<svg viewBox="0 0 363.01 25.08" xmlns="http://www.w3.org/2000/svg" xmlns:xlink="http://www.w3.org/1999/xlink" id="Layer_1" overflow="hidden"><style>
.MsftOfcThm_Text1_Fill_v2 {
 fill:#000000; 
}
</style>
<defs></defs><path d="M24.36 0.56 20.35 24.55 15.02 24.55 10.42 15.34C9.17 12.82 8.38 10.83 8.04 9.36 8.06 9.71 8.08 9.99 8.08 10.19 8.08 10.85 7.99 11.71 7.82 12.79L5.85 24.55 0 24.55 4.01 0.56 10.47 0.56 13.11 6.12C14.94 9.96 16.13 12.81 16.68 14.65 16.64 14.17 16.63 13.81 16.63 13.58 16.63 12.9 16.79 11.6 17.1 9.68L18.62 0.56 24.36 0.56Z" class="MsftOfcThm_Text1_Fill_v2"/><path d="M43.82 16.98 31.59 16.98C31.53 17.46 31.5 17.82 31.5 18.06 31.5 18.84 31.75 19.44 32.25 19.88 32.75 20.32 33.38 20.53 34.14 20.53 35.58 20.53 36.6 19.78 37.2 18.28L43.18 19.25C42.41 20.99 41.16 22.4 39.43 23.47 37.7 24.55 35.78 25.08 33.67 25.08 31.02 25.08 28.87 24.33 27.23 22.82 25.59 21.31 24.76 19.26 24.76 16.66 24.76 13.84 25.73 11.41 27.68 9.39 29.63 7.37 32.17 6.36 35.31 6.36 37.97 6.36 40.09 7.14 41.66 8.71 43.23 10.28 44.02 12.36 44.02 14.96 44.02 15.54 43.96 16.22 43.83 16.98ZM37.42 13.57C37.48 13.21 37.51 12.93 37.51 12.73 37.51 12.1 37.31 11.55 36.92 11.08 36.53 10.61 35.98 10.38 35.28 10.38 34.53 10.38 33.85 10.66 33.24 11.23 32.63 11.8 32.26 12.58 32.12 13.58L37.43 13.58Z" class="MsftOfcThm_Text1_Fill_v2"/><path d="M71.96 6.8 63.79 24.55 58.78 24.55 57.82 14.37 53.63 24.55 48.82 24.55 45.85 6.8 52.44 6.8 53.52 15.75 57.3 6.8 62.45 6.8 63.33 15.75 67.27 6.8 71.97 6.8Z" class="MsftOfcThm_Text1_Fill_v2"/><path d="M98.26 24.56 91.31 24.56C91.27 24.22 91.26 23.94 91.26 23.73 91.26 23.13 91.3 22.43 91.39 21.61 90 23.84 88.05 24.96 85.55 24.96 83.86 24.96 82.5 24.47 81.45 23.5 80.41 22.53 79.89 21.31 79.89 19.84 79.89 18.75 80.17 17.75 80.73 16.84 81.29 15.93 82.09 15.21 83.12 14.67 84.15 14.13 85.2 13.78 86.28 13.61 87.36 13.44 89.47 13.21 92.6 12.92 92.75 12.49 92.82 12.15 92.82 11.9 92.82 10.93 92.14 10.44 90.78 10.44 89.42 10.44 88.46 11.1 87.83 12.43L82.05 11.25C83.51 7.96 86.74 6.31 91.72 6.31 94.24 6.31 96.22 6.75 97.66 7.62 99.1 8.49 99.82 9.78 99.82 11.48 99.82 12.24 99.4 14.94 98.55 19.57 98.23 21.29 98.08 22.44 98.08 23 98.08 23.46 98.14 23.98 98.26 24.56ZM92.01 16.12C88.78 16.37 87.17 17.4 87.17 19.21 87.17 20.21 87.69 20.7 88.73 20.7 89.4 20.7 90.06 20.4 90.73 19.8 91.4 19.2 91.82 17.97 92.01 16.11Z" class="MsftOfcThm_Text1_Fill_v2"/><path d="M104.4 6.8 110.32 6.8 109.61 11.08C110.84 7.87 112.73 6.27 115.26 6.27 115.46 6.27 115.74 6.3 116.09 6.36L115.3 12.69C114.69 12.65 114.29 12.64 114.09 12.64 112.63 12.64 111.55 12.98 110.86 13.67 110.17 14.35 109.69 15.57 109.39 17.31L108.18 24.56 101.43 24.56 104.4 6.81Z" class="MsftOfcThm_Text1_Fill_v2"/><path d="M118.48 6.8 124.4 6.8 123.69 11.08C124.92 7.87 126.81 6.27 129.34 6.27 129.54 6.27 129.82 6.3 130.17 6.36L129.38 12.69C128.77 12.65 128.37 12.64 128.17 12.64 126.71 12.64 125.63 12.98 124.94 13.67 124.25 14.35 123.77 15.57 123.47 17.31L122.26 24.56 115.51 24.56 118.48 6.81Z" class="MsftOfcThm_Text1_Fill_v2"/><path d="M139.46 6.8 136.49 24.55 129.59 24.55 132.56 6.8 139.46 6.8ZM140.6 0 139.73 5.22 132.83 5.22 133.7 0 140.6 0Z" class="MsftOfcThm_Text1_Fill_v2"/><path d="M159.35 6.8 150.57 24.55 145.22 24.55 140.7 6.8 147.63 6.8 149.67 16.49 154.38 6.8 159.35 6.8Z" class="MsftOfcThm_Text1_Fill_v2"/><path d="M175.96 24.56 169.01 24.56C168.97 24.22 168.96 23.94 168.96 23.73 168.96 23.13 169 22.43 169.09 21.61 167.7 23.84 165.75 24.96 163.25 24.96 161.56 24.96 160.2 24.47 159.15 23.5 158.11 22.53 157.59 21.31 157.59 19.84 157.59 18.75 157.87 17.75 158.43 16.84 158.99 15.93 159.79 15.21 160.82 14.67 161.85 14.13 162.9 13.78 163.98 13.61 165.06 13.44 167.17 13.21 170.3 12.92 170.45 12.49 170.52 12.15 170.52 11.9 170.52 10.93 169.84 10.44 168.48 10.44 167.12 10.44 166.16 11.1 165.53 12.43L159.75 11.25C161.21 7.96 164.44 6.31 169.42 6.31 171.94 6.31 173.92 6.75 175.36 7.62 176.8 8.49 177.52 9.78 177.52 11.48 177.52 12.24 177.1 14.94 176.25 19.57 175.93 21.29 175.78 22.44 175.78 23 175.78 23.46 175.84 23.98 175.96 24.56ZM169.71 16.12C166.48 16.37 164.87 17.4 164.87 19.21 164.87 20.21 165.39 20.7 166.43 20.7 167.1 20.7 167.76 20.4 168.43 19.8 169.1 19.2 169.52 17.97 169.71 16.11Z" class="MsftOfcThm_Text1_Fill_v2"/><path d="M189.88 0.56 185.87 24.55 179.12 24.55 183.13 0.56 189.88 0.56Z" class="MsftOfcThm_Text1_Fill_v2"/><path d="M207.26 10.92 202.04 12.06C201.64 10.91 200.55 10.34 198.75 10.34 197.5 10.34 196.87 10.69 196.87 11.39 196.87 12.01 197.47 12.43 198.68 12.64 201.14 13.06 202.88 13.53 203.88 14.03 204.89 14.53 205.65 15.18 206.16 15.95 206.67 16.73 206.93 17.61 206.93 18.6 206.93 20.38 206.18 21.88 204.69 23.11 203.2 24.33 200.93 24.95 197.88 24.95 195.62 24.95 193.65 24.51 191.96 23.62 190.27 22.73 189.23 21.41 188.8 19.64L194.35 18.83C194.78 20.11 196.03 20.75 198.08 20.75 198.88 20.75 199.47 20.64 199.86 20.41 200.25 20.18 200.44 19.92 200.44 19.63 200.44 19.34 200.31 19.14 200.05 19.01 199.79 18.88 199.14 18.69 198.1 18.45 196.03 17.98 194.55 17.56 193.67 17.19 192.79 16.82 192.04 16.23 191.43 15.42 190.81 14.61 190.51 13.67 190.51 12.61 190.51 10.79 191.23 9.3 192.67 8.13 194.11 6.96 196.06 6.37 198.52 6.37 200.76 6.37 202.67 6.8 204.25 7.66 205.83 8.52 206.83 9.61 207.26 10.92Z" class="MsftOfcThm_Text1_Fill_v2"/><path d="M235.07 10.92 229.85 12.06C229.45 10.91 228.36 10.34 226.56 10.34 225.31 10.34 224.68 10.69 224.68 11.39 224.68 12.01 225.28 12.43 226.49 12.64 228.95 13.06 230.69 13.53 231.69 14.03 232.7 14.53 233.46 15.18 233.97 15.95 234.48 16.73 234.74 17.61 234.74 18.6 234.74 20.38 233.99 21.88 232.5 23.11 231.01 24.33 228.74 24.95 225.69 24.95 223.43 24.95 221.46 24.51 219.77 23.62 218.08 22.73 217.04 21.41 216.61 19.64L222.16 18.83C222.59 20.11 223.84 20.75 225.89 20.75 226.69 20.75 227.28 20.64 227.67 20.41 228.06 20.18 228.25 19.92 228.25 19.63 228.25 19.34 228.12 19.14 227.86 19.01 227.6 18.88 226.95 18.69 225.91 18.45 223.84 17.98 222.36 17.56 221.48 17.19 220.6 16.82 219.85 16.23 219.24 15.42 218.62 14.61 218.32 13.67 218.32 12.61 218.32 10.79 219.04 9.3 220.48 8.13 221.92 6.96 223.87 6.37 226.33 6.37 228.57 6.37 230.48 6.8 232.06 7.66 233.64 8.52 234.64 9.61 235.07 10.92Z" class="MsftOfcThm_Text1_Fill_v2"/><path d="M255.73 16.98 243.5 16.98C243.44 17.46 243.41 17.82 243.41 18.06 243.41 18.84 243.66 19.44 244.16 19.88 244.66 20.32 245.29 20.53 246.05 20.53 247.49 20.53 248.51 19.78 249.11 18.28L255.09 19.25C254.32 20.99 253.07 22.4 251.34 23.47 249.61 24.55 247.69 25.08 245.58 25.08 242.93 25.08 240.78 24.33 239.14 22.82 237.5 21.31 236.67 19.26 236.67 16.66 236.67 13.84 237.64 11.41 239.59 9.39 241.54 7.37 244.08 6.36 247.22 6.36 249.88 6.36 252 7.14 253.57 8.71 255.14 10.28 255.93 12.36 255.93 14.96 255.93 15.54 255.87 16.22 255.74 16.98ZM249.33 13.57C249.39 13.21 249.42 12.93 249.42 12.73 249.42 12.1 249.22 11.55 248.83 11.08 248.44 10.61 247.89 10.38 247.19 10.38 246.44 10.38 245.76 10.66 245.15 11.23 244.54 11.8 244.17 12.58 244.03 13.58L249.34 13.58Z" class="MsftOfcThm_Text1_Fill_v2"/><path d="M267.96 0.56 263.95 24.55 257.2 24.55 261.21 0.56 267.96 0.56Z" class="MsftOfcThm_Text1_Fill_v2"/><path d="M287.19 16.98 274.96 16.98C274.9 17.46 274.87 17.82 274.87 18.06 274.87 18.84 275.12 19.44 275.62 19.88 276.12 20.32 276.75 20.53 277.51 20.53 278.95 20.53 279.97 19.78 280.57 18.28L286.55 19.25C285.78 20.99 284.53 22.4 282.8 23.47 281.07 24.55 279.15 25.08 277.04 25.08 274.39 25.08 272.24 24.33 270.6 22.82 268.96 21.31 268.13 19.26 268.13 16.66 268.13 13.84 269.1 11.41 271.05 9.39 273 7.37 275.54 6.36 278.68 6.36 281.34 6.36 283.46 7.14 285.03 8.71 286.6 10.28 287.39 12.36 287.39 14.96 287.39 15.54 287.33 16.22 287.2 16.98ZM280.79 13.57C280.85 13.21 280.88 12.93 280.88 12.73 280.88 12.1 280.68 11.55 280.29 11.08 279.9 10.61 279.35 10.38 278.65 10.38 277.9 10.38 277.22 10.66 276.61 11.23 276 11.8 275.63 12.58 275.49 13.58L280.8 13.58Z" class="MsftOfcThm_Text1_Fill_v2"/><path d="M300.76 17.67 306.12 18.99C305.16 21.29 303.9 22.88 302.34 23.76 300.78 24.64 299.17 25.09 297.51 25.09 295.06 25.09 293.06 24.31 291.51 22.76 289.96 21.21 289.18 19.21 289.18 16.77 289.18 13.99 290.1 11.53 291.93 9.4 293.76 7.27 296.19 6.2 299.22 6.2 301.41 6.2 303.27 6.86 304.79 8.18 306.31 9.5 307.08 11.19 307.08 13.27L301.05 13.97C301.05 12.05 300.4 11.09 299.1 11.09 297.99 11.09 297.2 11.88 296.73 13.45 296.26 15.02 296.03 16.4 296.03 17.57 296.03 19.31 296.69 20.18 298 20.18 299.31 20.18 300.21 19.35 300.78 17.68Z" class="MsftOfcThm_Text1_Fill_v2"/><path d="M320.82 6.8 320.05 11.34 316.84 11.34 315.78 17.67C315.67 18.29 315.62 18.68 315.62 18.85 315.62 19.72 316.17 20.15 317.27 20.15 317.75 20.15 318.31 20.08 318.94 19.94L318.17 24.56C316.9 24.83 315.69 24.96 314.53 24.96 313.09 24.96 312.02 24.78 311.32 24.42 310.62 24.06 310.05 23.54 309.61 22.87 309.17 22.2 308.95 21.32 308.95 20.23 308.95 19.77 309.05 18.92 309.27 17.66L310.32 11.33 307.88 11.33 308.64 6.79 311.09 6.79 312.07 1.53 318.51 1.41 317.6 6.79 320.82 6.79Z" class="MsftOfcThm_Text1_Fill_v2"/><path d="M340.05 16.98 327.82 16.98C327.76 17.46 327.73 17.82 327.73 18.06 327.73 18.84 327.98 19.44 328.48 19.88 328.98 20.32 329.61 20.53 330.37 20.53 331.81 20.53 332.83 19.78 333.43 18.28L339.41 19.25C338.64 20.99 337.39 22.4 335.66 23.47 333.93 24.55 332.01 25.08 329.9 25.08 327.25 25.08 325.1 24.33 323.46 22.82 321.82 21.31 320.99 19.26 320.99 16.66 320.99 13.84 321.96 11.41 323.91 9.39 325.86 7.37 328.4 6.36 331.54 6.36 334.2 6.36 336.32 7.14 337.89 8.71 339.46 10.28 340.25 12.36 340.25 14.96 340.25 15.54 340.19 16.22 340.06 16.98ZM333.65 13.57C333.71 13.21 333.74 12.93 333.74 12.73 333.74 12.1 333.54 11.55 333.15 11.08 332.76 10.61 332.21 10.38 331.51 10.38 330.76 10.38 330.08 10.66 329.47 11.23 328.86 11.8 328.49 12.58 328.35 13.58L333.66 13.58Z" class="MsftOfcThm_Text1_Fill_v2"/><path d="M363.01 0.56 359 24.55 352.69 24.55 353.13 21.87C351.68 24.01 349.92 25.08 347.86 25.08 346.25 25.08 344.87 24.45 343.71 23.18 342.55 21.91 341.97 20.1 341.97 17.75 341.97 14.83 342.77 12.2 344.38 9.84 345.99 7.48 348.04 6.31 350.55 6.31 352.7 6.31 354.14 7.15 354.89 8.84L356.27 0.56 363.01 0.56ZM354.16 13.11C354.19 12.92 354.21 12.72 354.21 12.51 354.21 12.01 354.03 11.58 353.67 11.23 353.31 10.88 352.88 10.7 352.38 10.7 351.17 10.7 350.31 11.63 349.77 13.49 349.23 15.35 348.97 16.89 348.97 18.12 348.97 19.74 349.6 20.55 350.85 20.55 352.1 20.55 352.92 19.74 353.33 18.13L354.14 13.12Z" class="MsftOfcThm_Text1_Fill_v2"/></svg>