<svg viewBox="0 0 343.82 124.12" xmlns="http://www.w3.org/2000/svg" xmlns:xlink="http://www.w3.org/1999/xlink" id="Layer_1" overflow="hidden"><defs><linearGradient x1="46.6" y1="-30.46" x2="178.22" y2="105.75" gradientUnits="userSpaceOnUse" id="linear-gradient"><stop offset="0" stop-color="#FFFFFF"/><stop offset="0.14" stop-color="#FAD8C0"/><stop offset="0.39" stop-color="#F2934F"/><stop offset="0.51" stop-color="#EF7823"/></linearGradient></defs><rect x="0" y="7.65" rx="54.66" ry="54.66" width="339.09" height="116.47" fill="#231F20" opacity="0.56"/><rect x="3.73" y="1" rx="54.66" ry="54.66" width="339.09" height="116.47" stroke="#9A2B20" stroke-width="2" stroke-miterlimit="10" fill="#EF7823"/><path d="M229.88 4.71C176.23 7.71 82.35 13.35 54.11 42.82 35.98 61.75 32.63 84.1 38.05 109.53 18.29 101.06 12.01 84.58 9.46 77.06 6.49 68.3 1.64 31.48 28.35 14.06 42.84 4.61 53.06 5.24 53.06 5.24 53.06 5.24 185.24 4.71 229.88 4.71Z" fill="url(#linear-gradient)" opacity="0.78"/><g><g><path d="M86.49 65.06 86.43 65.68C86.21 67.67 85.72 69.51 84.97 71.22 84.22 72.96 83.18 74.46 81.85 75.72 80.52 76.98 78.85 77.96 76.83 78.67 74.81 79.38 72.47 79.74 69.79 79.74 67.11 79.74 64.75 79.28 62.6 78.36 60.45 77.46 58.64 76.17 57.18 74.48 55.74 72.81 54.62 70.82 53.84 68.49 53.07 66.17 52.69 63.58 52.69 60.73L52.69 56.74C52.69 53.89 53.08 51.31 53.87 48.98 54.66 46.64 55.79 44.62 57.27 42.94 58 42.12 58.82 41.38 59.71 40.72 60.67 40.06 61.71 39.51 62.83 39.06 65.06 38.14 67.55 37.68 70.3 37.68 71.14 37.68 71.95 37.72 72.73 37.79 73.51 37.86 74.25 37.98 74.96 38.14 75.67 38.3 76.36 38.49 77.01 38.72 78.96 39.43 80.58 40.42 81.87 41.67 82.21 41.99 82.52 42.32 82.81 42.67 83.1 43.02 83.37 43.38 83.62 43.75 83.87 44.13 84.11 44.51 84.34 44.92 84.56 45.32 84.77 45.75 84.96 46.2 85.73 47.92 86.22 49.83 86.42 51.9L86.48 52.52 79.96 52.52 79.88 52.04C79.69 50.65 79.37 49.41 78.92 48.3 78.49 47.23 77.9 46.32 77.15 45.57 76.4 44.82 75.47 44.25 74.37 43.86 73.26 43.45 71.91 43.24 70.3 43.24 70 43.24 69.7 43.24 69.41 43.27 69.12 43.3 68.83 43.32 68.55 43.35 68.27 43.39 67.99 43.43 67.72 43.48 67.45 43.53 67.19 43.59 66.93 43.66 66.68 43.73 66.43 43.81 66.2 43.9 65.97 43.98 65.73 44.08 65.48 44.2 64.11 44.84 62.97 45.74 62.05 46.9 61.58 47.48 61.17 48.12 60.81 48.83 60.45 49.53 60.15 50.3 59.91 51.12 59.67 51.96 59.49 52.85 59.38 53.78 59.27 54.71 59.21 55.69 59.21 56.72L59.21 60.71C59.21 61.2 59.22 61.67 59.25 62.13 59.28 62.59 59.31 63.04 59.36 63.48 59.41 63.92 59.47 64.36 59.54 64.79 59.63 65.22 59.73 65.64 59.82 66.05 60.25 67.68 60.91 69.11 61.79 70.35 62.65 71.55 63.75 72.49 65.08 73.16 66.39 73.85 67.96 74.2 69.77 74.2 71.58 74.2 73.01 74 74.21 73.61 74.79 73.42 75.32 73.19 75.8 72.91 76.28 72.63 76.7 72.31 77.08 71.95 77.85 71.24 78.45 70.35 78.88 69.28 79.31 68.19 79.64 66.95 79.86 65.54L79.94 65.06 86.46 65.06Z" fill="#AD4225"/><path d="M98.32 79.17 92 79.17 92 36.01 98.32 36.01 98.32 79.17Z" fill="#AD4225"/><path d="M106.15 43.76C105.53 43.09 105.22 42.25 105.22 41.26 105.22 40.77 105.29 40.32 105.44 39.9 105.59 39.48 105.82 39.1 106.14 38.76 106.76 38.05 107.66 37.69 108.84 37.69 110.02 37.69 110.93 38.05 111.57 38.76 112.19 39.43 112.5 40.27 112.5 41.26 112.5 42.25 112.19 43.09 111.57 43.76 110.93 44.43 110.02 44.77 108.84 44.77 107.66 44.77 106.76 44.43 106.14 43.76ZM111.97 79.17 105.65 79.17 105.65 48.76 111.97 48.76 111.97 79.17Z" fill="#AD4225"/><path d="M129.95 74.15C130.62 74.29 131.38 74.36 132.23 74.36 132.55 74.36 132.86 74.35 133.16 74.32 133.46 74.29 133.75 74.25 134.04 74.18 134.33 74.11 134.62 74.04 134.9 73.94 135.33 73.81 135.73 73.64 136.11 73.45 136.48 73.25 136.83 73.03 137.15 72.79 137.79 72.32 138.3 71.76 138.7 71.1 139.06 70.44 139.27 69.73 139.35 68.96L139.41 68.45 145.42 68.45 145.39 69.04C145.32 70.48 144.92 71.85 144.21 73.14 143.52 74.43 142.6 75.57 141.46 76.54 140.32 77.5 138.98 78.26 137.44 78.84 135.81 79.42 134.08 79.71 132.24 79.71 129.67 79.71 127.43 79.3 125.5 78.47 123.66 77.65 122.16 76.53 120.98 75.13 119.82 73.74 118.95 72.13 118.37 70.3 118.18 69.68 118.03 69.06 117.91 68.43 117.79 67.8 117.69 67.16 117.63 66.5 117.56 65.84 117.53 65.18 117.53 64.5L117.53 63.38C117.53 62.71 117.56 62.04 117.63 61.38 117.69 60.72 117.79 60.08 117.91 59.45 118.03 58.82 118.19 58.2 118.39 57.6 118.59 56.99 118.81 56.4 119.06 55.83 119.31 55.26 119.6 54.72 119.93 54.2 120.26 53.68 120.61 53.2 120.98 52.75 122.16 51.34 123.66 50.23 125.48 49.41 127.41 48.59 129.66 48.17 132.22 48.17 133.23 48.17 134.19 48.24 135.1 48.39 136.01 48.54 136.87 48.76 137.7 49.04 138.26 49.25 138.77 49.47 139.23 49.71 139.69 49.95 140.12 50.22 140.54 50.51 140.95 50.8 141.35 51.12 141.72 51.48 142.28 51.99 142.78 52.55 143.21 53.17 143.64 53.79 144.02 54.45 144.33 55.17 144.97 56.58 145.32 58.09 145.4 59.72L145.43 60.31 139.42 60.31 139.36 59.8C139.29 58.92 139.08 58.1 138.74 57.36 138.38 56.61 137.9 55.95 137.29 55.39 136.68 54.83 135.95 54.38 135.1 54.05 134.25 53.72 133.29 53.56 132.22 53.56 131.68 53.56 131.16 53.59 130.67 53.66 130.18 53.73 129.73 53.82 129.32 53.94 128.91 54.06 128.52 54.22 128.17 54.4 127.81 54.59 127.48 54.79 127.17 55.02 126.86 55.24 126.57 55.49 126.31 55.75 126.05 56.01 125.81 56.29 125.61 56.59 124.94 57.53 124.48 58.59 124.23 59.77 123.97 60.97 123.84 62.17 123.84 63.37L123.84 64.49C123.84 65.11 123.87 65.72 123.94 66.33 124.01 66.94 124.1 67.54 124.24 68.14 124.48 69.32 124.93 70.37 125.59 71.29 125.91 71.74 126.28 72.15 126.71 72.51 127.14 72.87 127.63 73.2 128.17 73.48 128.69 73.76 129.29 73.97 129.97 74.11Z" fill="#AD4225"/><path d="M170.04 78.95 158.94 65.41 156.13 68.16 156.13 79.18 149.81 79.18 149.81 36.01 156.13 36.01 156.13 61.13 158.01 58.97 158.04 58.94 168.33 48.94 168.53 48.77 176.57 48.77 175.7 49.67 163.59 61.61 177.11 78.3 177.78 79.17 170.22 79.17 170.05 78.95Z" fill="#AD4225"/><path d="M200.38 36.57 200.38 51.58C201.35 50.68 202.47 49.95 203.72 49.39 205.48 48.6 207.44 48.21 209.59 48.21 210.15 48.21 210.7 48.23 211.22 48.28 211.74 48.33 212.26 48.4 212.77 48.49 213.26 48.58 213.71 48.71 214.12 48.86 214.78 49.07 215.38 49.33 215.92 49.66 216.46 49.99 216.96 50.39 217.42 50.85 217.88 51.32 218.28 51.84 218.63 52.42 218.98 53 219.26 53.65 219.49 54.36 219.98 55.77 220.22 57.45 220.22 59.42L220.22 79.18 213.9 79.18 213.9 59.51C213.9 58.42 213.78 57.51 213.53 56.78 213.42 56.41 213.26 56.08 213.07 55.8 212.87 55.52 212.65 55.27 212.41 55.04 211.92 54.61 211.3 54.29 210.56 54.08 209.79 53.86 208.89 53.74 207.86 53.74 207.62 53.74 207.38 53.74 207.14 53.77 206.91 53.79 206.67 53.81 206.44 53.84 206.21 53.87 205.98 53.91 205.77 53.95 205.55 54 205.34 54.05 205.12 54.12 204.9 54.19 204.7 54.26 204.5 54.34 204.3 54.42 204.11 54.51 203.91 54.61 203.71 54.7 203.52 54.81 203.33 54.92 202.69 55.31 202.12 55.77 201.62 56.3 201.13 56.81 200.72 57.38 200.38 58.01L200.38 79.17 194.06 79.17 194.06 36.01 200.38 36.01 200.38 36.57Z" fill="#AD4225"/><path d="M242.81 79.61C242.04 79.69 241.24 79.74 240.39 79.74 238.01 79.74 235.86 79.37 233.93 78.64 232.04 77.91 230.45 76.89 229.18 75.58 228.77 75.13 228.38 74.66 228.01 74.17 227.64 73.68 227.32 73.16 227.03 72.61 226.74 72.06 226.48 71.48 226.26 70.88 225.59 69.1 225.25 67.14 225.25 65.01L225.25 63.89C225.25 61.44 225.63 59.23 226.4 57.29 227.17 55.36 228.19 53.72 229.46 52.37 229.89 51.94 230.34 51.54 230.82 51.16 231.3 50.79 231.79 50.44 232.3 50.12 232.86 49.82 233.44 49.55 234.04 49.31 235.86 48.58 237.74 48.21 239.69 48.21 240.91 48.21 242.05 48.31 243.12 48.52 244.19 48.71 245.17 48.99 246.07 49.36 246.63 49.62 247.16 49.92 247.64 50.25 248.13 50.58 248.58 50.93 249 51.32 249.42 51.7 249.81 52.12 250.17 52.57 251.24 53.92 252.02 55.51 252.53 57.35 252.79 58.25 252.98 59.19 253.11 60.17 253.23 61.15 253.29 62.17 253.29 63.22L253.29 66.03 231.6 66.03C231.67 67.1 231.89 68.09 232.25 69.01 232.38 69.39 232.54 69.74 232.73 70.06 232.92 70.39 233.12 70.7 233.35 70.99 233.57 71.28 233.82 71.56 234.08 71.82 234.47 72.21 234.91 72.56 235.39 72.87 235.87 73.18 236.39 73.46 236.95 73.7 238.06 74.15 239.31 74.37 240.72 74.37 241.36 74.37 241.96 74.33 242.52 74.26 243.08 74.19 243.61 74.07 244.11 73.91 244.61 73.75 245.06 73.56 245.47 73.33 246.74 72.62 247.83 71.67 248.73 70.49L249.07 70.04 249.52 70.38 252.7 72.85 253.12 73.19 252.84 73.61C252.67 73.87 252.49 74.13 252.29 74.38 252.09 74.63 251.89 74.89 251.67 75.14 251.45 75.39 251.23 75.64 250.98 75.88 250.25 76.61 249.41 77.27 248.45 77.85 247.96 78.13 247.44 78.38 246.88 78.61 246.3 78.85 245.67 79.06 245 79.23 244.33 79.4 243.6 79.53 242.84 79.61ZM241.55 53.76C240.99 53.66 240.37 53.61 239.7 53.61 239.34 53.61 239 53.63 238.67 53.67 238.34 53.71 238.02 53.76 237.71 53.84 237.4 53.91 237.1 54 236.8 54.09L236.29 54.31C236.12 54.38 235.95 54.47 235.78 54.56 235.61 54.65 235.45 54.75 235.3 54.84 235.15 54.93 235 55.04 234.85 55.16 234.7 55.28 234.56 55.4 234.43 55.51 234.07 55.83 233.75 56.18 233.46 56.58 233.17 56.97 232.9 57.41 232.66 57.9 232.47 58.29 232.3 58.72 232.15 59.19 232.02 59.64 231.91 60.12 231.81 60.62L246.96 60.62C246.89 59.78 246.73 58.94 246.48 58.12 246.41 57.84 246.3 57.57 246.17 57.31 246.04 57.05 245.89 56.79 245.73 56.54 245.57 56.29 245.4 56.05 245.21 55.82 244.65 55.16 243.92 54.63 243.02 54.22 242.59 54.01 242.09 53.86 241.53 53.76Z" fill="#AD4225"/><path d="M273.68 54.67 273.03 54.56C272.92 54.54 272.81 54.52 272.71 54.5 272.61 54.48 272.5 54.47 272.4 54.46 272.3 54.46 272.2 54.44 272.1 54.43 272.01 54.43 271.91 54.41 271.82 54.39 271.45 54.37 271.02 54.36 270.56 54.36 268.87 54.36 267.52 54.71 266.49 55.4 265.48 56.06 264.71 56.96 264.19 58.1L264.19 79.18 257.87 79.18 257.87 48.77 264.05 48.77 264.05 49.33 264.11 51.18C264.73 50.47 265.43 49.87 266.22 49.38 267.49 48.59 269.03 48.2 270.83 48.2 271.24 48.2 271.7 48.25 272.21 48.34 272.36 48.36 272.49 48.38 272.59 48.4 272.69 48.42 272.79 48.44 272.88 48.47 272.97 48.5 273.06 48.53 273.15 48.55 273.23 48.58 273.31 48.61 273.39 48.65L273.7 48.82 273.7 54.67Z" fill="#AD4225"/><path d="M293.27 79.61C292.5 79.69 291.7 79.74 290.85 79.74 288.47 79.74 286.32 79.37 284.39 78.64 282.5 77.91 280.91 76.89 279.64 75.58 279.23 75.13 278.84 74.66 278.47 74.17 278.1 73.68 277.78 73.16 277.49 72.61 277.2 72.06 276.94 71.48 276.72 70.88 276.05 69.1 275.71 67.14 275.71 65.01L275.71 63.89C275.71 61.44 276.09 59.23 276.86 57.29 277.63 55.36 278.65 53.72 279.92 52.37 280.35 51.94 280.8 51.54 281.28 51.16 281.76 50.79 282.25 50.44 282.76 50.12 283.32 49.82 283.9 49.55 284.5 49.31 286.32 48.58 288.2 48.21 290.15 48.21 291.37 48.21 292.51 48.31 293.58 48.52 294.65 48.71 295.63 48.99 296.53 49.36 297.09 49.62 297.62 49.92 298.1 50.25 298.59 50.58 299.04 50.93 299.46 51.32 299.88 51.7 300.27 52.12 300.63 52.57 301.7 53.92 302.48 55.51 302.99 57.35 303.25 58.25 303.44 59.19 303.57 60.17 303.69 61.15 303.75 62.17 303.75 63.22L303.75 66.03 282.06 66.03C282.13 67.1 282.35 68.09 282.71 69.01 282.84 69.39 283 69.74 283.19 70.06 283.38 70.39 283.58 70.7 283.81 70.99 284.03 71.28 284.28 71.56 284.54 71.82 284.93 72.21 285.37 72.56 285.85 72.87 286.33 73.18 286.85 73.46 287.41 73.7 288.52 74.15 289.77 74.37 291.18 74.37 291.82 74.37 292.42 74.33 292.98 74.26 293.54 74.19 294.07 74.07 294.57 73.91 295.07 73.75 295.52 73.56 295.93 73.33 297.2 72.62 298.29 71.67 299.19 70.49L299.53 70.04 299.98 70.38 303.16 72.85 303.58 73.19 303.3 73.61C303.13 73.87 302.95 74.13 302.75 74.38 302.55 74.63 302.35 74.89 302.13 75.14 301.91 75.39 301.69 75.64 301.44 75.88 300.71 76.61 299.87 77.27 298.91 77.85 298.42 78.13 297.9 78.38 297.34 78.61 296.76 78.85 296.13 79.06 295.46 79.23 294.79 79.4 294.06 79.53 293.3 79.61ZM292.01 53.76C291.45 53.66 290.83 53.61 290.16 53.61 289.8 53.61 289.46 53.63 289.13 53.67 288.8 53.71 288.48 53.76 288.17 53.84 287.86 53.91 287.56 54 287.26 54.09L286.75 54.31C286.58 54.38 286.41 54.47 286.24 54.56 286.07 54.65 285.91 54.75 285.76 54.84 285.61 54.93 285.46 55.04 285.31 55.16 285.16 55.28 285.02 55.4 284.89 55.51 284.53 55.83 284.21 56.18 283.92 56.58 283.63 56.97 283.36 57.41 283.12 57.9 282.93 58.29 282.76 58.72 282.61 59.19 282.48 59.64 282.37 60.12 282.27 60.62L297.42 60.62C297.35 59.78 297.19 58.94 296.94 58.12 296.87 57.84 296.76 57.57 296.63 57.31 296.5 57.05 296.35 56.79 296.19 56.54 296.03 56.29 295.86 56.05 295.67 55.82 295.11 55.16 294.38 54.63 293.48 54.22 293.05 54.01 292.55 53.86 291.99 53.76Z" fill="#AD4225"/></g><g><path d="M88.96 64.22 88.9 64.84C88.68 66.83 88.19 68.67 87.44 70.38 86.69 72.12 85.65 73.62 84.32 74.88 82.99 76.14 81.32 77.12 79.3 77.83 77.29 78.54 74.94 78.9 72.26 78.9 69.58 78.9 67.22 78.44 65.07 77.52 62.92 76.62 61.11 75.33 59.65 73.64 58.21 71.97 57.09 69.98 56.31 67.65 55.54 65.33 55.16 62.74 55.16 59.89L55.16 55.9C55.16 53.05 55.55 50.47 56.34 48.14 57.13 45.8 58.26 43.78 59.74 42.1 60.47 41.28 61.29 40.54 62.18 39.88 63.14 39.22 64.18 38.67 65.3 38.22 67.53 37.3 70.02 36.84 72.77 36.84 73.61 36.84 74.42 36.88 75.2 36.95 75.98 37.02 76.72 37.14 77.43 37.3 78.14 37.46 78.83 37.65 79.48 37.88 81.43 38.59 83.05 39.58 84.34 40.83 84.68 41.15 84.99 41.48 85.28 41.83 85.57 42.18 85.84 42.54 86.09 42.91 86.34 43.29 86.58 43.67 86.81 44.08 87.03 44.48 87.24 44.91 87.43 45.36 88.2 47.08 88.69 48.99 88.89 51.06L88.95 51.68 82.43 51.68 82.35 51.2C82.16 49.81 81.84 48.57 81.39 47.46 80.96 46.39 80.37 45.48 79.62 44.73 78.87 43.98 77.94 43.41 76.84 43.02 75.73 42.61 74.38 42.4 72.77 42.4 72.47 42.4 72.17 42.4 71.88 42.43 71.59 42.46 71.3 42.48 71.02 42.51 70.74 42.55 70.46 42.59 70.19 42.64 69.92 42.69 69.66 42.75 69.4 42.82 69.15 42.89 68.9 42.97 68.67 43.06 68.44 43.14 68.2 43.24 67.95 43.36 66.58 44 65.44 44.9 64.52 46.06 64.05 46.64 63.64 47.28 63.28 47.99 62.92 48.69 62.62 49.46 62.38 50.28 62.14 51.12 61.96 52.01 61.85 52.94 61.74 53.87 61.68 54.85 61.68 55.88L61.68 59.87C61.68 60.36 61.69 60.83 61.72 61.29 61.75 61.75 61.78 62.2 61.83 62.64 61.88 63.08 61.94 63.52 62.01 63.95 62.1 64.38 62.2 64.8 62.29 65.21 62.72 66.84 63.38 68.27 64.26 69.51 65.12 70.71 66.22 71.65 67.55 72.32 68.86 73.01 70.43 73.36 72.24 73.36 74.05 73.36 75.48 73.16 76.68 72.77 77.26 72.58 77.79 72.35 78.27 72.07 78.75 71.79 79.17 71.47 79.55 71.11 80.32 70.4 80.92 69.51 81.35 68.44 81.78 67.35 82.11 66.11 82.33 64.7L82.41 64.22 88.93 64.22Z" fill="#FFFFFF"/><path d="M100.79 78.33 94.47 78.33 94.47 35.16 100.79 35.16 100.79 78.32Z" fill="#FFFFFF"/><path d="M108.62 42.92C108 42.25 107.69 41.41 107.69 40.42 107.69 39.93 107.76 39.48 107.91 39.06 108.06 38.64 108.29 38.26 108.61 37.92 109.23 37.21 110.13 36.85 111.31 36.85 112.49 36.85 113.4 37.21 114.04 37.92 114.66 38.59 114.97 39.43 114.97 40.42 114.97 41.41 114.66 42.25 114.04 42.92 113.4 43.59 112.49 43.93 111.31 43.93 110.13 43.93 109.23 43.59 108.61 42.92ZM114.44 78.33 108.12 78.33 108.12 47.92 114.44 47.92 114.44 78.33Z" fill="#FFFFFF"/><path d="M132.42 73.31C133.09 73.45 133.85 73.52 134.7 73.52 135.02 73.52 135.33 73.51 135.63 73.48 135.93 73.45 136.22 73.41 136.51 73.34 136.8 73.27 137.09 73.2 137.37 73.1 137.8 72.97 138.2 72.8 138.58 72.61 138.95 72.41 139.3 72.19 139.62 71.95 140.26 71.48 140.77 70.92 141.17 70.26 141.53 69.6 141.74 68.89 141.82 68.12L141.88 67.61 147.89 67.61 147.86 68.2C147.79 69.64 147.39 71.01 146.68 72.3 145.99 73.59 145.07 74.73 143.93 75.7 142.79 76.66 141.45 77.42 139.91 78 138.28 78.58 136.55 78.87 134.71 78.87 132.14 78.87 129.9 78.46 127.97 77.63 126.13 76.81 124.63 75.69 123.45 74.29 122.29 72.9 121.42 71.29 120.84 69.46 120.65 68.84 120.5 68.22 120.38 67.59 120.26 66.96 120.16 66.32 120.1 65.66 120.03 65 120 64.34 120 63.66L120 62.54C120 61.87 120.03 61.2 120.1 60.54 120.16 59.88 120.26 59.24 120.38 58.61 120.5 57.98 120.66 57.36 120.86 56.76 121.06 56.15 121.28 55.56 121.53 54.99 121.78 54.42 122.07 53.88 122.4 53.36 122.73 52.84 123.08 52.36 123.45 51.91 124.63 50.5 126.13 49.39 127.95 48.57 129.88 47.75 132.13 47.33 134.69 47.33 135.7 47.33 136.66 47.4 137.57 47.55 138.48 47.7 139.34 47.92 140.17 48.2 140.73 48.41 141.24 48.63 141.7 48.87 142.16 49.11 142.59 49.38 143.01 49.67 143.42 49.96 143.82 50.28 144.19 50.64 144.75 51.15 145.25 51.71 145.68 52.33 146.11 52.95 146.49 53.61 146.8 54.33 147.44 55.74 147.79 57.25 147.87 58.88L147.9 59.47 141.89 59.47 141.83 58.96C141.76 58.08 141.55 57.26 141.21 56.52 140.85 55.77 140.37 55.11 139.76 54.55 139.15 53.99 138.42 53.54 137.57 53.21 136.72 52.88 135.76 52.72 134.69 52.72 134.15 52.72 133.63 52.75 133.14 52.82 132.65 52.89 132.2 52.98 131.79 53.1 131.38 53.22 130.99 53.38 130.64 53.56 130.28 53.75 129.95 53.95 129.64 54.18 129.33 54.4 129.04 54.65 128.78 54.91 128.52 55.17 128.28 55.45 128.08 55.75 127.41 56.69 126.95 57.75 126.7 58.93 126.44 60.13 126.31 61.33 126.31 62.53L126.31 63.65C126.31 64.27 126.34 64.88 126.41 65.49 126.48 66.1 126.57 66.7 126.71 67.3 126.95 68.48 127.4 69.53 128.06 70.45 128.38 70.9 128.75 71.31 129.18 71.67 129.61 72.03 130.1 72.36 130.64 72.64 131.16 72.92 131.76 73.13 132.44 73.27Z" fill="#FFFFFF"/><path d="M172.51 78.1 161.41 64.56 158.6 67.31 158.6 78.33 152.28 78.33 152.28 35.16 158.6 35.16 158.6 60.28 160.48 58.12 160.51 58.09 170.8 48.09 171 47.92 179.04 47.92 178.17 48.82 166.06 60.76 179.58 77.45 180.25 78.32 172.69 78.32 172.52 78.1Z" fill="#FFFFFF"/><path d="M202.85 35.73 202.85 50.74C203.82 49.84 204.94 49.11 206.19 48.55 207.95 47.76 209.91 47.37 212.06 47.37 212.62 47.37 213.17 47.39 213.69 47.44 214.21 47.49 214.73 47.56 215.24 47.65 215.73 47.74 216.18 47.87 216.59 48.02 217.25 48.23 217.85 48.49 218.39 48.82 218.93 49.15 219.43 49.55 219.89 50.01 220.35 50.48 220.75 51 221.1 51.58 221.45 52.16 221.73 52.81 221.96 53.52 222.45 54.93 222.69 56.61 222.69 58.58L222.69 78.34 216.37 78.34 216.37 58.67C216.37 57.58 216.25 56.67 216 55.94 215.89 55.57 215.73 55.24 215.54 54.96 215.34 54.68 215.12 54.43 214.88 54.2 214.39 53.77 213.77 53.45 213.03 53.24 212.26 53.02 211.36 52.9 210.33 52.9 210.09 52.9 209.85 52.9 209.61 52.93 209.38 52.95 209.14 52.97 208.91 53 208.68 53.03 208.45 53.07 208.24 53.11 208.02 53.16 207.81 53.21 207.59 53.28 207.37 53.35 207.17 53.42 206.97 53.5 206.77 53.58 206.58 53.67 206.38 53.77 206.18 53.86 205.99 53.97 205.8 54.08 205.16 54.47 204.59 54.93 204.09 55.46 203.6 55.97 203.19 56.54 202.85 57.17L202.85 78.33 196.53 78.33 196.53 35.16 202.85 35.16 202.85 35.72Z" fill="#FFFFFF"/><path d="M245.28 78.76C244.51 78.84 243.71 78.89 242.86 78.89 240.48 78.89 238.33 78.52 236.4 77.79 234.51 77.06 232.92 76.04 231.65 74.73 231.24 74.28 230.85 73.81 230.48 73.32 230.11 72.83 229.79 72.31 229.5 71.76 229.21 71.21 228.95 70.63 228.73 70.03 228.06 68.25 227.72 66.29 227.72 64.16L227.72 63.04C227.72 60.59 228.1 58.38 228.87 56.44 229.64 54.51 230.66 52.87 231.93 51.52 232.36 51.09 232.81 50.69 233.29 50.31 233.77 49.94 234.26 49.59 234.77 49.27 235.33 48.97 235.91 48.7 236.51 48.46 238.33 47.73 240.21 47.36 242.16 47.36 243.38 47.36 244.52 47.46 245.59 47.67 246.66 47.86 247.64 48.14 248.54 48.51 249.1 48.77 249.63 49.07 250.11 49.4 250.6 49.73 251.05 50.08 251.47 50.47 251.89 50.85 252.28 51.27 252.64 51.72 253.71 53.07 254.49 54.66 255 56.5 255.26 57.4 255.45 58.34 255.58 59.32 255.7 60.3 255.76 61.32 255.76 62.37L255.76 65.18 234.07 65.18C234.14 66.25 234.36 67.24 234.72 68.16 234.85 68.54 235.01 68.89 235.2 69.21 235.39 69.54 235.59 69.85 235.82 70.14 236.04 70.43 236.29 70.71 236.55 70.97 236.94 71.36 237.38 71.71 237.86 72.02 238.34 72.33 238.86 72.61 239.42 72.85 240.53 73.3 241.78 73.52 243.19 73.52 243.83 73.52 244.43 73.48 244.99 73.41 245.55 73.34 246.08 73.22 246.58 73.06 247.08 72.9 247.53 72.71 247.94 72.48 249.21 71.77 250.3 70.82 251.2 69.64L251.54 69.19 251.99 69.53 255.17 72 255.59 72.34 255.31 72.76C255.14 73.02 254.96 73.28 254.76 73.53 254.56 73.78 254.36 74.04 254.14 74.29 253.92 74.54 253.7 74.79 253.45 75.03 252.72 75.76 251.88 76.42 250.92 77 250.43 77.28 249.91 77.53 249.35 77.76 248.77 78 248.14 78.21 247.47 78.38 246.8 78.55 246.07 78.68 245.31 78.76ZM244.02 52.91C243.46 52.81 242.84 52.76 242.17 52.76 241.81 52.76 241.47 52.78 241.14 52.82 240.81 52.86 240.49 52.91 240.18 52.99 239.87 53.06 239.57 53.15 239.27 53.24L238.76 53.46C238.59 53.53 238.42 53.62 238.25 53.71 238.08 53.8 237.92 53.9 237.77 53.99 237.62 54.08 237.47 54.19 237.32 54.31 237.17 54.43 237.03 54.55 236.9 54.66 236.54 54.98 236.22 55.33 235.93 55.73 235.64 56.12 235.37 56.56 235.13 57.05 234.94 57.44 234.77 57.87 234.62 58.34 234.49 58.79 234.38 59.27 234.28 59.77L249.43 59.77C249.36 58.93 249.2 58.09 248.95 57.27 248.88 56.99 248.77 56.72 248.64 56.46 248.51 56.2 248.36 55.94 248.2 55.69 248.04 55.44 247.87 55.2 247.68 54.97 247.12 54.31 246.39 53.78 245.49 53.37 245.06 53.16 244.56 53.01 244 52.91Z" fill="#FFFFFF"/><path d="M276.16 53.82 275.51 53.71C275.4 53.69 275.29 53.67 275.19 53.65 275.09 53.63 274.98 53.62 274.88 53.61 274.78 53.61 274.68 53.59 274.58 53.58 274.49 53.58 274.39 53.56 274.3 53.54 273.93 53.52 273.5 53.51 273.04 53.51 271.35 53.51 270 53.86 268.97 54.55 267.96 55.21 267.19 56.11 266.67 57.25L266.67 78.33 260.35 78.33 260.35 47.92 266.53 47.92 266.53 48.48 266.59 50.33C267.21 49.62 267.91 49.02 268.7 48.53 269.97 47.74 271.51 47.35 273.31 47.35 273.72 47.35 274.18 47.4 274.69 47.49 274.84 47.51 274.97 47.53 275.07 47.55 275.17 47.57 275.27 47.59 275.36 47.62 275.45 47.65 275.54 47.68 275.63 47.7 275.71 47.73 275.79 47.76 275.87 47.8L276.18 47.97 276.18 53.82Z" fill="#FFFFFF"/><path d="M295.74 78.76C294.97 78.84 294.17 78.89 293.32 78.89 290.94 78.89 288.79 78.52 286.86 77.79 284.97 77.06 283.38 76.04 282.11 74.73 281.7 74.28 281.31 73.81 280.94 73.32 280.57 72.83 280.25 72.31 279.96 71.76 279.67 71.21 279.41 70.63 279.19 70.03 278.52 68.25 278.18 66.29 278.18 64.16L278.18 63.04C278.18 60.59 278.56 58.38 279.33 56.44 280.1 54.51 281.12 52.87 282.39 51.52 282.82 51.09 283.27 50.69 283.75 50.31 284.23 49.94 284.72 49.59 285.23 49.27 285.79 48.97 286.37 48.7 286.97 48.46 288.79 47.73 290.67 47.36 292.62 47.36 293.84 47.36 294.98 47.46 296.05 47.67 297.12 47.86 298.1 48.14 299 48.51 299.56 48.77 300.09 49.07 300.57 49.4 301.06 49.73 301.51 50.08 301.93 50.47 302.35 50.85 302.74 51.27 303.1 51.72 304.17 53.07 304.95 54.66 305.46 56.5 305.72 57.4 305.91 58.34 306.04 59.32 306.16 60.3 306.22 61.32 306.22 62.37L306.22 65.18 284.53 65.18C284.6 66.25 284.82 67.24 285.18 68.16 285.31 68.54 285.47 68.89 285.66 69.21 285.85 69.54 286.05 69.85 286.28 70.14 286.5 70.43 286.75 70.71 287.01 70.97 287.4 71.36 287.84 71.71 288.32 72.02 288.8 72.33 289.32 72.61 289.88 72.85 290.99 73.3 292.24 73.52 293.65 73.52 294.29 73.52 294.89 73.48 295.45 73.41 296.01 73.34 296.54 73.22 297.04 73.06 297.54 72.9 297.99 72.71 298.4 72.48 299.67 71.77 300.76 70.82 301.66 69.64L302 69.19 302.45 69.53 305.63 72 306.05 72.34 305.77 72.76C305.6 73.02 305.42 73.28 305.22 73.53 305.02 73.78 304.82 74.04 304.6 74.29 304.38 74.54 304.16 74.79 303.91 75.03 303.18 75.76 302.34 76.42 301.38 77 300.89 77.28 300.37 77.53 299.81 77.76 299.23 78 298.6 78.21 297.93 78.38 297.26 78.55 296.53 78.68 295.77 78.76ZM294.48 52.91C293.92 52.81 293.3 52.76 292.63 52.76 292.27 52.76 291.93 52.78 291.6 52.82 291.27 52.86 290.95 52.91 290.64 52.99 290.33 53.06 290.03 53.15 289.73 53.24L289.22 53.46C289.05 53.53 288.88 53.62 288.71 53.71 288.54 53.8 288.38 53.9 288.23 53.99 288.08 54.08 287.93 54.19 287.78 54.31 287.63 54.43 287.49 54.55 287.36 54.66 287 54.98 286.68 55.33 286.39 55.73 286.1 56.12 285.83 56.56 285.59 57.05 285.4 57.44 285.23 57.87 285.08 58.34 284.95 58.79 284.84 59.27 284.74 59.77L299.89 59.77C299.82 58.93 299.66 58.09 299.41 57.27 299.34 56.99 299.23 56.72 299.1 56.46 298.97 56.2 298.82 55.94 298.66 55.69 298.5 55.44 298.33 55.2 298.14 54.97 297.58 54.31 296.85 53.78 295.95 53.37 295.52 53.16 295.02 53.01 294.46 52.91Z" fill="#FFFFFF"/></g></g></svg>