<svg viewBox="0 0 156.01 25.22" xmlns="http://www.w3.org/2000/svg" xmlns:xlink="http://www.w3.org/1999/xlink" id="Layer_1" overflow="hidden"><style>
.MsftOfcThm_Text1_Fill_v2 {
 fill:#000000; 
}
</style>
<defs></defs><path d="M16.95 0.62 14.3 16.49C13.91 18.86 13.4 20.58 12.76 21.65 12.12 22.72 11.15 23.56 9.83 24.17 8.51 24.78 6.68 25.08 4.33 25.08 2.95 25.08 1.51 24.92 0.01 24.61L0.94 19.06C2.12 19.26 3.03 19.36 3.68 19.36 4.58 19.36 5.29 19.19 5.79 18.84 6.3 18.49 6.65 18.06 6.84 17.55 7.03 17.03 7.26 15.94 7.53 14.26L9.82 0.62 16.95 0.62Z" class="MsftOfcThm_Text1_Fill_v2"/><path d="M40.18 0.62 37.72 15.39C37.3 17.9 36.74 19.75 36.05 20.95 35.36 22.15 34.22 23.12 32.64 23.87 31.06 24.62 29.17 24.99 26.98 24.99 24.14 24.99 21.94 24.38 20.35 23.17 18.76 21.96 17.98 20.23 17.98 17.99 17.98 17.23 18.06 16.36 18.23 15.39L20.71 0.62 28.02 0.62 25.56 15.39C25.42 16.2 25.35 16.8 25.35 17.18 25.35 17.92 25.64 18.5 26.24 18.92 26.83 19.34 27.54 19.55 28.37 19.55 29.41 19.55 30.2 19.29 30.74 18.77 31.28 18.25 31.68 17.2 31.93 15.63L34.45 0.62 40.19 0.62Z" class="MsftOfcThm_Text1_Fill_v2"/><path d="M61.89 6.19 55.72 7.75C55.54 7.04 55.1 6.47 54.4 6.06 53.7 5.65 52.92 5.44 52.08 5.44 50.5 5.44 49.71 5.97 49.71 7.02 49.71 7.36 49.82 7.65 50.04 7.9 50.26 8.15 50.89 8.45 51.92 8.82L55.73 10.18C56.73 10.53 57.65 11.05 58.51 11.74 59.37 12.43 59.98 13.18 60.36 13.99 60.74 14.8 60.92 15.67 60.92 16.6 60.92 19.02 59.97 21.03 58.06 22.61 56.15 24.19 53.62 24.98 50.44 24.98 47.72 24.98 45.35 24.43 43.33 23.33 41.31 22.23 39.9 20.55 39.1 18.29L46.03 16.94C46.63 18.64 48.1 19.49 50.46 19.49 51.44 19.49 52.16 19.31 52.6 18.95 53.04 18.59 53.26 18.19 53.26 17.73 53.26 17.44 53.18 17.18 53.01 16.96 52.84 16.74 52.66 16.58 52.47 16.48 52.28 16.38 51.37 16.03 49.74 15.43 47.54 14.62 45.99 13.97 45.11 13.5 44.22 13.03 43.49 12.32 42.89 11.38 42.3 10.44 42 9.34 42 8.08 42 5.89 42.81 4.04 44.42 2.52 46.03 1 48.49 0.23 51.8 0.23 54.33 0.23 56.5 0.76 58.3 1.83 60.1 2.9 61.3 4.35 61.89 6.19Z" class="MsftOfcThm_Text1_Fill_v2"/><path d="M75.79 6.06 72.68 24.6 65.71 24.6 68.82 6.06 63.69 6.06 64.62 0.54 82 0.54 81.09 6.06 75.8 6.06Z" class="MsftOfcThm_Text1_Fill_v2"/><path d="M106.38 10.23 105.5 15.47 97.81 15.47 96.27 24.61 89.3 24.61 93.32 0.62 110.23 0.62 109.32 6.02 99.41 6.02 98.7 10.24 106.38 10.24Z" class="MsftOfcThm_Text1_Fill_v2"/><path d="M119.74 25.22C116.9 25.22 114.44 24.29 112.36 22.43 110.28 20.57 109.23 17.91 109.23 14.44 109.23 10.42 110.4 7.01 112.73 4.2 115.06 1.39 118.11-0.01 121.87-0.01 124.88-0.01 127.35 0.97 129.29 2.93 131.23 4.89 132.19 7.46 132.19 10.64 132.19 14.69 131.04 18.14 128.74 20.97 126.44 23.8 123.44 25.22 119.74 25.22ZM119.79 19.63C121.03 19.63 121.98 19.11 122.62 18.06 123.26 17.01 123.77 15.47 124.15 13.45 124.53 11.43 124.71 10.05 124.71 9.34 124.71 8.11 124.43 7.18 123.86 6.55 123.29 5.92 122.54 5.6 121.6 5.6 119.81 5.6 118.55 6.85 117.82 9.34 117.09 11.83 116.73 14.05 116.73 15.97 116.73 18.42 117.75 19.64 119.79 19.64Z" class="MsftOfcThm_Text1_Fill_v2"/><path d="M150.96 14.55 153.56 24.61 146.46 24.61 144.35 15.49 141.51 15.49 139.98 24.61 133.14 24.61 137.14 0.62 147.62 0.62C150.47 0.62 152.58 1.24 153.95 2.49 155.32 3.74 156.01 5.43 156.01 7.58 156.01 11.01 154.33 13.34 150.97 14.56ZM142.35 10.49 145.05 10.49C147.64 10.49 148.94 9.61 148.94 7.85 148.94 6.37 147.85 5.64 145.68 5.64L143.17 5.64 142.36 10.49Z" class="MsftOfcThm_Text1_Fill_v2"/></svg>