<svg viewBox="0 0 74 33.05" xmlns="http://www.w3.org/2000/svg" xmlns:xlink="http://www.w3.org/1999/xlink" id="Layer_1" overflow="hidden"><defs></defs><path d="M1.49 23.39C1.66 23.2 1.88 23.01 2.16 22.81 2.44 22.62 2.72 22.52 3.01 22.5 3.3 22.48 3.58 22.61 3.86 22.86 4.14 23.11 4.36 23.59 4.53 24.28 4.1 24.59 3.71 24.95 3.38 25.34 3.04 25.74 2.79 26.13 2.62 26.53 2.45 26.93 2.38 27.3 2.4 27.66 2.42 28.02 2.58 28.32 2.87 28.56 3.95 28.9 5.04 28.78 6.15 28.22 7.25 27.66 8.34 26.78 9.41 25.59 10.48 24.4 11.51 22.96 12.51 21.27 13.51 19.58 14.42 17.76 15.26 15.82 14.76 16.57 14.22 17.24 13.66 17.85 13.1 18.46 12.52 18.97 11.93 19.38 11.34 19.79 10.73 20.08 10.09 20.24 9.45 20.41 8.81 20.42 8.16 20.28 7.06 20.04 6.17 19.63 5.51 19.06 4.85 18.49 4.37 17.81 4.07 17.03 3.77 16.25 3.61 15.41 3.6 14.49 3.59 13.57 3.68 12.65 3.87 11.7 4.06 10.75 4.33 9.82 4.68 8.91 5.03 8 5.39 7.16 5.78 6.41 6.16 5.65 6.54 5 6.91 4.45 7.28 3.9 7.6 3.5 7.86 3.26 8.6 2.88 9.32 2.68 10.02 2.67 10.72 2.66 11.33 2.74 11.86 2.92 12.39 3.1 12.79 3.33 13.07 3.62 13.35 3.91 13.44 4.16 13.34 4.38 13.2 4.69 13.08 4.93 13 5.1 12.92 5.27 12.78 5.53 12.59 5.89L10.18 10.57C9.96 11 9.68 11.63 9.32 12.46 8.96 13.29 8.67 14.12 8.44 14.96 8.21 15.8 8.13 16.55 8.21 17.21 8.28 17.87 8.64 18.24 9.29 18.31 9.67 18.36 10.26 18.03 11.04 17.32 11.82 16.61 12.68 15.52 13.63 14.04 14.58 12.56 15.58 10.7 16.64 8.44 17.7 6.19 18.7 3.53 19.66 0.48L19.66 0.41C20.4 0.31 20.99 0.29 21.41 0.34 21.83 0.39 22.16 0.48 22.4 0.63 22.64 0.77 22.8 0.95 22.89 1.15 22.97 1.35 23.04 1.54 23.09 1.71 22.87 4.76 22.48 7.68 21.9 10.48 21.32 13.28 20.61 15.87 19.76 18.27 18.91 20.67 17.92 22.84 16.81 24.77 15.69 26.7 14.49 28.32 13.19 29.61 11.89 30.9 10.52 31.85 9.07 32.44 7.62 33.03 6.12 33.19 4.59 32.93 3.44 32.74 2.5 32.31 1.76 31.65 1.03 30.99 0.53 30.2 0.27 29.29 0.01 28.38-0.03 27.4 0.16 26.36 0.35 25.32 0.81 24.33 1.53 23.39Z" fill="#F29300"/><path d="M44.94 2.47C45.64 3.24 46.12 4.17 46.4 5.28 46.68 6.38 46.78 7.5 46.72 8.63 46.66 9.76 46.46 10.83 46.11 11.85 45.76 12.87 45.32 13.67 44.8 14.24 45.09 14.65 45.32 15.08 45.48 15.54 45.65 16 45.74 16.48 45.77 16.98 45.39 19.57 44.58 21.78 43.34 23.6 42.1 25.42 40.65 26.85 38.97 27.87 37.29 28.89 35.5 29.5 33.59 29.69 31.68 29.88 29.85 29.63 28.1 28.93 26.85 28.45 25.84 27.72 25.08 26.75 24.31 25.78 23.75 24.66 23.39 23.4 23.03 22.14 22.86 20.78 22.87 19.31 22.88 17.85 23.04 16.39 23.34 14.94 23.64 13.49 24.07 12.09 24.64 10.75 25.2 9.41 25.85 8.21 26.57 7.15 27.87 5.3 29.36 3.81 31.05 2.67 32.74 1.53 34.45 0.76 36.16 0.37 37.88-0.03 39.51-0.05 41.07 0.3 42.63 0.65 43.93 1.37 44.96 2.48ZM38.39 11.83C38.39 11.3 38.64 11 39.15 10.91 39.65 10.83 40.25 10.91 40.95 11.18 41.79 10.41 42.46 9.6 42.97 8.73 43.47 7.87 43.76 7.07 43.82 6.34 43.88 5.61 43.68 4.98 43.23 4.47 42.77 3.95 42.01 3.66 40.93 3.59 40.14 3.54 39.3 3.68 38.43 4 37.55 4.32 36.69 4.78 35.84 5.37 34.99 5.96 34.18 6.65 33.41 7.44 32.64 8.23 31.96 9.07 31.36 9.96 30.23 11.66 29.37 13.41 28.79 15.2 28.2 16.99 27.84 18.66 27.71 20.22 27.58 21.78 27.64 23.14 27.91 24.29 28.17 25.44 28.62 26.21 29.24 26.59 29.98 27.07 30.83 27.18 31.78 26.91 32.73 26.65 33.66 26.13 34.57 25.36 35.48 24.59 36.33 23.64 37.11 22.5 37.89 21.36 38.49 20.17 38.91 18.92 39.33 17.67 39.53 16.42 39.5 15.18 39.48 13.93 39.12 12.82 38.42 11.83Z" fill="#F29300"/><path d="M67.48 18.13C67.24 18.99 67.03 19.94 66.85 20.97 66.67 22 66.54 23 66.45 23.96 66.36 24.92 66.34 25.78 66.36 26.53 66.38 27.29 66.49 27.83 66.68 28.17 65.96 28.87 65.35 29.22 64.84 29.23 64.34 29.24 63.92 29.01 63.58 28.55 63.24 28.09 62.99 27.42 62.81 26.57 62.63 25.72 62.52 24.78 62.47 23.74 61.92 24.77 61.32 25.73 60.69 26.62 60.05 27.51 59.38 28.27 58.66 28.91 57.94 29.54 57.17 30 56.36 30.28 55.54 30.56 54.69 30.6 53.8 30.41 52.34 30.1 51.21 29.46 50.42 28.48 49.63 27.51 49.09 26.33 48.8 24.93 48.51 23.54 48.44 22 48.58 20.32 48.72 18.64 48.99 16.93 49.39 15.19 49.79 13.45 50.27 11.75 50.83 10.1 51.39 8.44 51.96 6.94 52.52 5.58 53.08 4.22 53.6 3.1 54.09 2.2 54.57 1.3 54.93 0.73 55.17 0.49 55.22 0.3 55.49 0.16 56 0.08 56.5 2.01228e-15 57.06-0.02 57.67 0.03 58.28 0.08 58.84 0.22 59.34 0.46 59.84 0.7 60.12 1.05 60.17 1.5 60.19 1.84 59.97 2.45 59.5 3.35 59.03 4.25 58.46 5.41 57.77 6.84 57.09 8.27 56.37 9.93 55.61 11.83 54.85 13.73 54.2 15.83 53.65 18.13 53.39 19.21 53.2 20.31 53.09 21.42 52.98 22.54 52.98 23.54 53.09 24.44 53.2 25.34 53.43 26.07 53.77 26.62 54.12 27.17 54.6 27.41 55.23 27.34 55.61 27.32 56.06 26.99 56.58 26.37 57.1 25.75 57.64 24.94 58.2 23.96 58.76 22.98 59.35 21.88 59.95 20.67 60.55 19.46 61.12 18.25 61.66 17.03 62.2 15.82 62.69 14.67 63.14 13.59 63.59 12.51 63.95 11.62 64.24 10.93 64.62 9.61 65.09 8.3 65.64 7.01 66.34 5.31 66.99 3.87 67.6 2.71 68.21 1.55 68.67 0.81 68.99 0.5 69.04 0.31 69.31 0.17 69.82 0.09 70.32 0.01 70.88-0.01 71.49 0.04 72.1 0.09 72.66 0.23 73.16 0.47 73.66 0.71 73.94 1.06 73.99 1.51 74.01 1.73 73.93 2.05 73.74 2.48 73.55 2.91 73.28 3.46 72.95 4.12 72.61 4.78 72.23 5.55 71.8 6.42 71.37 7.3 70.92 8.26 70.47 9.32 69.92 10.54 69.38 11.89 68.87 13.35 68.35 14.81 67.89 16.41 67.48 18.14Z" fill="#F29300"/></svg>