<svg viewBox="0 0 73.24 84.36" xmlns="http://www.w3.org/2000/svg" xmlns:xlink="http://www.w3.org/1999/xlink" id="Layer_1" overflow="hidden"><style>
.MsftOfcThm_Background1_Fill_v2 {
 fill:#FFFFFF; 
}
</style>
<defs></defs><path d="M10.51 75.11C7.67 75.11 5.21 74.18 3.13 72.32 1.05 70.46 0 67.8 0 64.33 0 60.31 1.17 56.9 3.5 54.09 5.83 51.28 8.88 49.88 12.64 49.88 15.65 49.88 18.12 50.86 20.06 52.82 22 54.78 22.96 57.35 22.96 60.53 22.96 64.58 21.81 68.03 19.51 70.86 17.21 73.69 14.21 75.11 10.51 75.11ZM10.56 69.52C11.8 69.52 12.75 69 13.39 67.95 14.03 66.9 14.54 65.36 14.92 63.34 15.3 61.32 15.48 59.94 15.48 59.23 15.48 58 15.2 57.07 14.63 56.44 14.06 55.81 13.31 55.49 12.37 55.49 10.58 55.49 9.32 56.74 8.59 59.23 7.86 61.72 7.5 63.94 7.5 65.86 7.5 68.31 8.52 69.53 10.56 69.53Z" class="MsftOfcThm_Background1_Fill_v2" fill="#FFFFFF"/><path d="M40.97 60.12 40.09 65.36 32.4 65.36 30.86 74.5 23.89 74.5 27.9 50.51 44.81 50.51 43.9 55.91 33.99 55.91 33.28 60.13 40.96 60.13Z" class="MsftOfcThm_Background1_Fill_v2" fill="#FFFFFF"/><path d="M60.21 60.12 59.33 65.36 51.64 65.36 50.1 74.5 43.13 74.5 47.14 50.51 64.05 50.51 63.14 55.91 53.23 55.91 52.52 60.13 60.2 60.13Z" class="MsftOfcThm_Background1_Fill_v2" fill="#FFFFFF"/><path d="M5.01 24.49C3.52 24.49 2.31 23.98 1.39 22.97 0.47 21.96 -2.22045e-16 20.56 -2.22045e-16 18.8 -2.22045e-16 16.83 0.59 15.13 1.78 13.71 2.97 12.29 4.45 11.57 6.22 11.57 7.65 11.57 8.84 12.08 9.79 13.11 10.74 14.14 11.21 15.49 11.21 17.16 11.21 18.95 10.64 20.62 9.49 22.17 8.34 23.72 6.85 24.49 5.01 24.49ZM21.8 12.08 5.28 36.08 1.88 36.08 18.42 12.08 21.79 12.08ZM5.21 21.35C5.98 21.35 6.51 20.79 6.81 19.68 7.11 18.56 7.26 17.49 7.26 16.45 7.26 15.3 6.87 14.72 6.08 14.72 5.29 14.72 4.74 15.31 4.43 16.5 4.12 17.69 3.96 18.74 3.96 19.65 3.96 20.78 4.38 21.34 5.21 21.34ZM17.47 36.52C16.06 36.52 14.87 36.01 13.88 35 12.89 33.99 12.39 32.66 12.39 31.02 12.39 29.06 12.99 27.34 14.19 25.86 15.39 24.38 16.88 23.64 18.65 23.64 19.69 23.64 20.59 23.89 21.35 24.4 22.11 24.91 22.68 25.58 23.07 26.41 23.46 27.24 23.66 28.24 23.66 29.4 23.66 31.12 23.1 32.74 21.97 34.25 20.84 35.76 19.35 36.52 17.47 36.52ZM17.63 33.34C18.36 33.34 18.88 32.75 19.19 31.58 19.51 30.41 19.66 29.39 19.66 28.55 19.66 27.37 19.24 26.79 18.41 26.79 17.64 26.79 17.1 27.37 16.81 28.53 16.52 29.69 16.37 30.74 16.37 31.69 16.37 32.79 16.79 33.35 17.62 33.35Z" class="MsftOfcThm_Background1_Fill_v2" fill="#FFFFFF"/><path d="M25.37 29.66 30.99 28.31C31.22 29.36 31.72 30.15 32.48 30.67 33.24 31.19 34.04 31.45 34.88 31.45 35.72 31.45 36.46 31.17 37.03 30.61 37.6 30.05 37.88 29.38 37.88 28.61 37.88 27.05 36.71 26.27 34.38 26.27L32.06 26.27 32.87 21.31 35.17 21.31C37.69 21.31 38.95 20.46 38.95 18.75 38.95 18.11 38.7 17.59 38.19 17.21 37.68 16.83 37.06 16.63 36.34 16.63 34.62 16.63 33.43 17.55 32.79 19.39L27.39 17.6C28.05 15.74 29.17 14.26 30.77 13.14 32.36 12.02 34.26 11.47 36.45 11.47 39.04 11.47 41.21 12.08 42.96 13.31 44.71 14.54 45.59 16.21 45.59 18.33 45.59 19.71 45.18 20.9 44.36 21.89 43.54 22.88 42.44 23.53 41.06 23.82 43.49 24.72 44.7 26.46 44.7 29.02 44.7 31.11 43.86 32.91 42.19 34.43 40.52 35.95 38.19 36.72 35.23 36.72 29.96 36.72 26.68 34.36 25.39 29.65Z" class="MsftOfcThm_Background1_Fill_v2" fill="#FFFFFF"/><path d="M56.02 36.62C54.31 36.62 52.88 36.24 51.74 35.47 50.6 34.7 49.65 33.55 48.91 32 48.17 30.46 47.79 28.61 47.79 26.47 47.79 22.39 48.77 18.87 50.74 15.91 52.71 12.95 55.28 11.47 58.46 11.47 61.01 11.47 63.03 12.42 64.52 14.32 66 16.22 66.74 18.73 66.74 21.85 66.74 25.61 65.79 29.02 63.89 32.06 61.99 35.1 59.37 36.62 56.01 36.62ZM56.28 31.54C57.11 31.54 57.81 31.09 58.37 30.19 58.93 29.29 59.41 27.65 59.81 25.27 60.21 22.89 60.41 20.99 60.41 19.59 60.41 17.56 59.68 16.55 58.23 16.55 57.33 16.55 56.63 16.99 56.13 17.87 55.63 18.75 55.17 20.45 54.75 22.96 54.33 25.47 54.12 27.23 54.12 28.24 54.12 30.45 54.84 31.55 56.28 31.55Z" class="MsftOfcThm_Background1_Fill_v2" fill="#FFFFFF"/><line x1="0" y1="1" x2="71.15" y2="1" stroke="#000000" stroke-width="2" stroke-miterlimit="10" fill="none"/><line x1="0" y1="83.36" x2="73.24" y2="83.36" stroke="#000000" stroke-width="2" stroke-miterlimit="10" fill="none"/></svg>